<svg width="536" height="289" viewBox="0 0 536 289" fill="none" xmlns="http://www.w3.org/2000/svg">
<path d="M260.21 2.14359C265.161 -0.714531 271.26 -0.714531 276.21 2.14359L336.42 36.906C341.371 39.7641 344.42 45.0461 344.42 50.7624V120.287C344.42 126.003 341.371 131.285 336.42 134.144L276.21 168.906C271.26 171.764 265.161 171.764 260.21 168.906L200 134.144C195.05 131.285 192 126.003 192 120.287V50.7624C192 45.0461 195.05 39.7641 200 36.906L260.21 2.14359Z" fill="#C4C4C4"/>
<path d="M214.45 89.8608V84.6048L247.138 68.5488V75.8928L223.45 87.2688L247.138 98.6448V105.917L214.45 89.8608Z" fill="#E5E5E5"/>
<path d="M274.134 59.1168H281.478L260.958 110.525H253.614L274.134 59.1168Z" fill="#E5E5E5"/>
<path d="M287.927 98.6448L311.543 87.2688L287.927 75.8928V68.5488L320.615 84.6048V89.8608L287.927 105.917V98.6448Z" fill="#E5E5E5"/>
<path d="M115.248 191.496C114.048 191.496 113.04 191.088 112.224 190.272C111.408 189.456 111 188.448 111 187.248C111 186.048 111.408 185.04 112.224 184.224C113.04 183.408 114.048 183 115.248 183C116.496 183 117.528 183.408 118.344 184.224C119.208 185.04 119.64 186.048 119.64 187.248C119.64 188.448 119.208 189.456 118.344 190.272C117.528 191.088 116.496 191.496 115.248 191.496ZM111.576 198.264H118.992V232.824H111.576V198.264Z" fill="#C4C4C4"/>
<path d="M129 198.264H135.912V203.232C137.544 201.216 139.392 199.704 141.456 198.696C143.52 197.688 145.656 197.184 147.864 197.184C150.648 197.184 152.856 197.664 154.488 198.624C156.12 199.536 157.32 200.952 158.088 202.872C159.624 201 161.496 199.584 163.704 198.624C165.96 197.664 168.216 197.184 170.472 197.184C174.696 197.184 177.744 198.264 179.616 200.424C181.488 202.536 182.424 205.68 182.424 209.856V232.824H175.368V210.792C175.368 207.96 174.84 205.968 173.784 204.816C172.728 203.616 170.928 203.016 168.384 203.016C164.736 203.016 161.76 204.6 159.456 207.768C159.552 208.488 159.6 209.664 159.6 211.296V232.824H152.544V210.792C152.544 207.96 152.064 205.968 151.104 204.816C150.144 203.616 148.416 203.016 145.92 203.016C142.272 203.016 139.008 205.08 136.128 209.208V232.824H129V198.264Z" fill="#C4C4C4"/>
<path d="M210.446 233.904C204.062 233.904 199.045 232.32 195.397 229.152C191.797 225.936 189.997 221.424 189.997 215.616C189.997 209.952 191.606 205.464 194.822 202.152C198.086 198.84 202.717 197.184 208.717 197.184C212.701 197.184 216.085 197.952 218.869 199.488C221.653 200.976 223.742 203.064 225.134 205.752C226.574 208.392 227.294 211.416 227.294 214.824V218.424H196.91C197.15 221.688 198.518 224.136 201.014 225.768C203.558 227.352 206.99 228.144 211.31 228.144C213.518 228.144 215.75 227.952 218.006 227.568C220.262 227.136 222.253 226.584 223.981 225.912V231.744C222.445 232.368 220.406 232.872 217.862 233.256C215.366 233.688 212.894 233.904 210.446 233.904ZM220.453 213.312C220.357 210.048 219.278 207.528 217.214 205.752C215.198 203.928 212.318 203.016 208.574 203.016C204.926 203.016 202.093 203.952 200.077 205.824C198.061 207.696 197.006 210.192 196.91 213.312H220.453Z" fill="#C4C4C4"/>
<path d="M235.242 198.264H242.298V204.456C243.738 202.344 245.754 200.784 248.346 199.776C250.986 198.768 254.034 198.264 257.49 198.264V203.952C253.794 203.952 250.626 204.552 247.986 205.752C245.346 206.952 243.522 208.848 242.514 211.44V232.824H235.242V198.264Z" fill="#C4C4C4"/>
<path d="M275.689 233.904C273.289 233.904 270.745 233.592 268.057 232.968C265.369 232.392 263.257 231.6 261.721 230.592V224.4C263.593 225.504 265.753 226.416 268.201 227.136C270.649 227.808 273.025 228.144 275.329 228.144C277.921 228.144 279.817 227.832 281.017 227.208C282.217 226.584 282.817 225.576 282.817 224.184C282.817 223.128 282.529 222.288 281.953 221.664C281.425 220.992 280.489 220.392 279.145 219.864C277.849 219.336 275.881 218.712 273.241 217.992C270.409 217.176 268.153 216.36 266.473 215.544C264.841 214.68 263.593 213.6 262.729 212.304C261.913 211.008 261.505 209.328 261.505 207.264C261.505 203.952 262.801 201.456 265.393 199.776C268.033 198.048 271.561 197.184 275.977 197.184C278.281 197.184 280.537 197.4 282.745 197.832C284.953 198.264 286.729 198.864 288.073 199.632V205.68C286.681 204.864 284.953 204.216 282.889 203.736C280.873 203.256 278.809 203.016 276.697 203.016C274.153 203.016 272.209 203.328 270.865 203.952C269.521 204.576 268.849 205.68 268.849 207.264C268.849 208.272 269.137 209.088 269.713 209.712C270.289 210.336 271.201 210.888 272.449 211.368C273.745 211.8 275.785 212.376 278.569 213.096C282.937 214.296 285.961 215.712 287.641 217.344C289.369 218.976 290.233 221.232 290.233 224.112C290.233 227.088 289.009 229.464 286.561 231.24C284.113 233.016 280.489 233.904 275.689 233.904Z" fill="#C4C4C4"/>
<path d="M302.42 191.496C301.22 191.496 300.212 191.088 299.396 190.272C298.58 189.456 298.172 188.448 298.172 187.248C298.172 186.048 298.58 185.04 299.396 184.224C300.212 183.408 301.22 183 302.42 183C303.668 183 304.7 183.408 305.516 184.224C306.38 185.04 306.812 186.048 306.812 187.248C306.812 188.448 306.38 189.456 305.516 190.272C304.7 191.088 303.668 191.496 302.42 191.496ZM298.748 198.264H306.164V232.824H298.748V198.264Z" fill="#C4C4C4"/>
<path d="M314.732 198.264H322.436L332.588 223.104L342.74 198.264H350.444L335.756 232.824H329.42L314.732 198.264Z" fill="#C4C4C4"/>
<path d="M370.283 233.904C365.627 233.904 362.099 232.656 359.699 230.16C357.347 227.664 356.171 224.328 356.171 220.152V198.264H363.443V219.864C363.443 225.384 366.203 228.144 371.723 228.144C376.571 228.144 380.363 225.96 383.099 221.592V198.264H390.371V232.824H383.315V227.928C381.683 229.992 379.739 231.504 377.483 232.464C375.275 233.424 372.875 233.904 370.283 233.904Z" fill="#C4C4C4"/>
<path d="M412.447 233.904C410.047 233.904 407.503 233.592 404.815 232.968C402.127 232.392 400.015 231.6 398.479 230.592V224.4C400.351 225.504 402.511 226.416 404.959 227.136C407.407 227.808 409.783 228.144 412.087 228.144C414.679 228.144 416.575 227.832 417.775 227.208C418.975 226.584 419.575 225.576 419.575 224.184C419.575 223.128 419.287 222.288 418.711 221.664C418.183 220.992 417.247 220.392 415.903 219.864C414.607 219.336 412.639 218.712 409.999 217.992C407.167 217.176 404.911 216.36 403.231 215.544C401.599 214.68 400.351 213.6 399.487 212.304C398.671 211.008 398.263 209.328 398.263 207.264C398.263 203.952 399.559 201.456 402.151 199.776C404.791 198.048 408.319 197.184 412.735 197.184C415.039 197.184 417.295 197.4 419.503 197.832C421.711 198.264 423.487 198.864 424.831 199.632V205.68C423.439 204.864 421.711 204.216 419.647 203.736C417.631 203.256 415.567 203.016 413.455 203.016C410.911 203.016 408.967 203.328 407.623 203.952C406.279 204.576 405.607 205.68 405.607 207.264C405.607 208.272 405.895 209.088 406.471 209.712C407.047 210.336 407.959 210.888 409.207 211.368C410.503 211.8 412.543 212.376 415.327 213.096C419.695 214.296 422.719 215.712 424.399 217.344C426.127 218.976 426.991 221.232 426.991 224.112C426.991 227.088 425.767 229.464 423.319 231.24C420.871 233.016 417.247 233.904 412.447 233.904Z" fill="#C4C4C4"/>
<path d="M8.112 288.432C6.832 288.432 5.84 288.048 5.136 287.28C4.464 286.512 4.128 285.36 4.128 283.824V272.976C4.128 270.544 3.072 269.328 0.96 269.328H0V265.104H0.96C3.072 265.104 4.128 263.888 4.128 261.456V250.608C4.128 249.072 4.464 247.92 5.136 247.152C5.84 246.384 6.832 246 8.112 246H12.624V250.128H10.848C10.176 250.128 9.696 250.304 9.408 250.656C9.152 250.976 9.024 251.52 9.024 252.288V262.08C9.024 264.8 7.968 266.496 5.856 267.168V267.264C7.968 267.872 9.024 269.568 9.024 272.352V282.144C9.024 282.912 9.152 283.456 9.408 283.776C9.696 284.128 10.176 284.304 10.848 284.304H12.624V288.432H8.112Z" fill="white"/>
<path d="M30.0371 284.496C27.4771 284.496 25.2051 284.016 23.2211 283.056C21.2371 282.096 19.6851 280.704 18.5651 278.88C17.4771 277.024 16.9331 274.832 16.9331 272.304C16.9331 269.776 17.4771 267.6 18.5651 265.776C19.6851 263.92 21.2371 262.496 23.2211 261.504C25.2371 260.512 27.5411 260.016 30.1331 260.016C33.6531 260.016 36.4691 260.704 38.5811 262.08V266.064C36.5011 264.624 33.8451 263.904 30.6131 263.904C27.9891 263.904 25.8611 264.624 24.2291 266.064C22.6291 267.472 21.8291 269.552 21.8291 272.304C21.8291 275.056 22.6291 277.136 24.2291 278.544C25.8291 279.952 27.9251 280.656 30.5171 280.656C33.7491 280.656 36.5331 279.888 38.8691 278.352V282.288C37.7491 283.056 36.4691 283.616 35.0291 283.968C33.6211 284.32 31.9571 284.496 30.0371 284.496Z" fill="white"/>
<path d="M52.1647 284.496C49.3807 284.496 47.1408 283.792 45.4448 282.384C43.7808 280.944 42.9487 279.008 42.9487 276.576C42.9487 274.016 43.7488 272.048 45.3488 270.672C46.9808 269.264 49.2847 268.56 52.2607 268.56C55.4288 268.56 58.1167 269.2 60.3247 270.48V269.28C60.3247 267.456 59.7647 266.112 58.6447 265.248C57.5567 264.352 55.8288 263.904 53.4608 263.904C52.0528 263.904 50.6767 264.048 49.3327 264.336C48.0207 264.592 46.8368 264.96 45.7808 265.44V261.504C46.7408 261.056 47.9887 260.704 49.5247 260.448C51.0607 260.16 52.5488 260.016 53.9888 260.016C57.7968 260.016 60.6128 260.864 62.4368 262.56C64.2928 264.224 65.2207 266.544 65.2207 269.52V283.776H60.6608V281.184C59.6688 282.272 58.4847 283.104 57.1087 283.68C55.7647 284.224 54.1167 284.496 52.1647 284.496ZM53.3647 280.8C54.9007 280.8 56.2927 280.496 57.5407 279.888C58.7887 279.28 59.7167 278.432 60.3247 277.344V274.224C58.2447 272.88 55.9247 272.208 53.3647 272.208C51.5087 272.208 50.1168 272.576 49.1888 273.312C48.2928 274.016 47.8447 275.104 47.8447 276.576C47.8447 279.392 49.6847 280.8 53.3647 280.8Z" fill="white"/>
<path d="M71.2369 260.736H75.9409V264.864C76.9009 263.456 78.2449 262.416 79.9729 261.744C81.7329 261.072 83.7649 260.736 86.0689 260.736V264.528C83.6049 264.528 81.4929 264.928 79.7329 265.728C77.9729 266.528 76.7569 267.792 76.0849 269.52V283.776H71.2369V260.736Z" fill="white"/>
<path d="M90.4088 248.304H95.2568V283.776H90.4088V248.304Z" fill="white"/>
<path d="M113.662 284.496C111.07 284.496 108.782 284.016 106.798 283.056C104.846 282.064 103.31 280.656 102.19 278.832C101.102 276.976 100.558 274.8 100.558 272.304C100.558 269.84 101.102 267.68 102.19 265.824C103.278 263.968 104.814 262.544 106.798 261.552C108.782 260.528 111.07 260.016 113.662 260.016C116.254 260.016 118.542 260.528 120.526 261.552C122.51 262.544 124.046 263.968 125.134 265.824C126.254 267.68 126.814 269.84 126.814 272.304C126.814 274.8 126.254 276.976 125.134 278.832C124.046 280.656 122.51 282.064 120.526 283.056C118.542 284.016 116.254 284.496 113.662 284.496ZM113.662 280.656C116.158 280.656 118.142 279.888 119.614 278.352C121.086 276.816 121.822 274.8 121.822 272.304C121.822 269.712 121.086 267.664 119.614 266.16C118.142 264.656 116.158 263.904 113.662 263.904C111.166 263.904 109.182 264.656 107.71 266.16C106.238 267.664 105.502 269.712 105.502 272.304C105.502 274.8 106.238 276.816 107.71 278.352C109.182 279.888 111.166 280.656 113.662 280.656Z" fill="white"/>
<path d="M139.358 284.496C137.758 284.496 136.062 284.288 134.27 283.872C132.478 283.488 131.07 282.96 130.046 282.288V278.16C131.294 278.896 132.734 279.504 134.366 279.984C135.998 280.432 137.582 280.656 139.118 280.656C140.846 280.656 142.11 280.448 142.91 280.032C143.71 279.616 144.11 278.944 144.11 278.016C144.11 277.312 143.918 276.752 143.534 276.336C143.182 275.888 142.558 275.488 141.662 275.136C140.798 274.784 139.486 274.368 137.726 273.888C135.838 273.344 134.334 272.8 133.214 272.256C132.126 271.68 131.294 270.96 130.718 270.096C130.174 269.232 129.902 268.112 129.902 266.736C129.902 264.528 130.766 262.864 132.494 261.744C134.254 260.592 136.606 260.016 139.55 260.016C141.086 260.016 142.59 260.16 144.062 260.448C145.534 260.736 146.718 261.136 147.614 261.648V265.68C146.686 265.136 145.534 264.704 144.158 264.384C142.814 264.064 141.438 263.904 140.03 263.904C138.334 263.904 137.038 264.112 136.142 264.528C135.246 264.944 134.798 265.68 134.798 266.736C134.798 267.408 134.99 267.952 135.374 268.368C135.758 268.784 136.366 269.152 137.198 269.472C138.062 269.76 139.422 270.144 141.278 270.624C144.19 271.424 146.206 272.368 147.326 273.456C148.478 274.544 149.054 276.048 149.054 277.968C149.054 279.952 148.238 281.536 146.606 282.72C144.974 283.904 142.558 284.496 139.358 284.496Z" fill="white"/>
<path d="M155.642 283.776C155.002 283.776 154.458 283.568 154.01 283.152C153.594 282.704 153.386 282.16 153.386 281.52C153.386 280.88 153.594 280.336 154.01 279.888C154.458 279.44 155.002 279.216 155.642 279.216C156.282 279.216 156.826 279.44 157.274 279.888C157.722 280.336 157.946 280.88 157.946 281.52C157.946 282.16 157.722 282.704 157.274 283.152C156.826 283.568 156.282 283.776 155.642 283.776Z" fill="white"/>
<path d="M163.206 260.736H167.91V264.864C168.87 263.456 170.214 262.416 171.942 261.744C173.702 261.072 175.734 260.736 178.038 260.736V264.528C175.574 264.528 173.462 264.928 171.702 265.728C169.942 266.528 168.726 267.792 168.054 269.52V283.776H163.206V260.736Z" fill="white"/>
<path d="M193.818 284.496C191.226 284.496 188.938 284.016 186.954 283.056C185.002 282.064 183.466 280.656 182.346 278.832C181.258 276.976 180.714 274.8 180.714 272.304C180.714 269.84 181.258 267.68 182.346 265.824C183.434 263.968 184.97 262.544 186.954 261.552C188.938 260.528 191.226 260.016 193.818 260.016C196.41 260.016 198.698 260.528 200.682 261.552C202.666 262.544 204.202 263.968 205.29 265.824C206.41 267.68 206.97 269.84 206.97 272.304C206.97 274.8 206.41 276.976 205.29 278.832C204.202 280.656 202.666 282.064 200.682 283.056C198.698 284.016 196.41 284.496 193.818 284.496ZM193.818 280.656C196.314 280.656 198.298 279.888 199.77 278.352C201.242 276.816 201.978 274.8 201.978 272.304C201.978 269.712 201.242 267.664 199.77 266.16C198.298 264.656 196.314 263.904 193.818 263.904C191.322 263.904 189.338 264.656 187.866 266.16C186.394 267.664 185.658 269.712 185.658 272.304C185.658 274.8 186.394 276.816 187.866 278.352C189.338 279.888 191.322 280.656 193.818 280.656Z" fill="white"/>
<path d="M223.678 284.496C221.118 284.496 218.846 284.016 216.862 283.056C214.878 282.096 213.326 280.704 212.206 278.88C211.118 277.024 210.574 274.832 210.574 272.304C210.574 269.776 211.118 267.6 212.206 265.776C213.326 263.92 214.878 262.496 216.862 261.504C218.878 260.512 221.182 260.016 223.774 260.016C227.294 260.016 230.11 260.704 232.222 262.08V266.064C230.142 264.624 227.486 263.904 224.254 263.904C221.63 263.904 219.502 264.624 217.87 266.064C216.27 267.472 215.47 269.552 215.47 272.304C215.47 275.056 216.27 277.136 217.87 278.544C219.47 279.952 221.566 280.656 224.158 280.656C227.39 280.656 230.174 279.888 232.51 278.352V282.288C231.39 283.056 230.11 283.616 228.67 283.968C227.262 284.32 225.598 284.496 223.678 284.496Z" fill="white"/>
<path d="M237.784 248.304H242.632V263.904C244.84 261.312 247.784 260.016 251.464 260.016C254.536 260.016 256.824 260.832 258.328 262.464C259.832 264.096 260.584 266.288 260.584 269.04V283.776H255.736V269.52C255.736 265.776 253.944 263.904 250.36 263.904C248.824 263.904 247.384 264.272 246.04 265.008C244.728 265.712 243.592 266.8 242.632 268.272V283.776H237.784V248.304Z" fill="white"/>
<path d="M274.118 284.496C271.334 284.496 269.094 283.792 267.398 282.384C265.734 280.944 264.902 279.008 264.902 276.576C264.902 274.016 265.702 272.048 267.302 270.672C268.934 269.264 271.238 268.56 274.214 268.56C277.382 268.56 280.07 269.2 282.278 270.48V269.28C282.278 267.456 281.718 266.112 280.598 265.248C279.51 264.352 277.782 263.904 275.414 263.904C274.006 263.904 272.63 264.048 271.286 264.336C269.974 264.592 268.79 264.96 267.734 265.44V261.504C268.694 261.056 269.942 260.704 271.478 260.448C273.014 260.16 274.502 260.016 275.942 260.016C279.75 260.016 282.566 260.864 284.39 262.56C286.246 264.224 287.174 266.544 287.174 269.52V283.776H282.614V281.184C281.622 282.272 280.438 283.104 279.062 283.68C277.718 284.224 276.07 284.496 274.118 284.496ZM275.318 280.8C276.854 280.8 278.246 280.496 279.494 279.888C280.742 279.28 281.67 278.432 282.278 277.344V274.224C280.198 272.88 277.878 272.208 275.318 272.208C273.462 272.208 272.07 272.576 271.142 273.312C270.246 274.016 269.798 275.104 269.798 276.576C269.798 279.392 271.638 280.8 275.318 280.8Z" fill="white"/>
<path d="M294.486 283.776C293.846 283.776 293.302 283.568 292.854 283.152C292.438 282.704 292.23 282.16 292.23 281.52C292.23 280.88 292.438 280.336 292.854 279.888C293.302 279.44 293.846 279.216 294.486 279.216C295.126 279.216 295.67 279.44 296.118 279.888C296.566 280.336 296.79 280.88 296.79 281.52C296.79 282.16 296.566 282.704 296.118 283.152C295.67 283.568 295.126 283.776 294.486 283.776Z" fill="white"/>
<path d="M303.633 264.48H300.129V260.736H303.633V256.224C303.633 253.568 304.385 251.552 305.889 250.176C307.393 248.768 309.409 248.064 311.937 248.064C313.249 248.064 314.481 248.256 315.633 248.64V252.672C314.737 252.256 313.809 252.048 312.849 252.048C311.345 252.048 310.241 252.416 309.537 253.152C308.833 253.856 308.481 254.976 308.481 256.512V260.736H314.241V264.48H308.481V283.776H303.633V264.48Z" fill="white"/>
<path d="M318.737 260.736H323.441V264.864C324.401 263.456 325.745 262.416 327.473 261.744C329.233 261.072 331.265 260.736 333.569 260.736V264.528C331.105 264.528 328.993 264.928 327.233 265.728C325.473 266.528 324.257 267.792 323.585 269.52V283.776H318.737V260.736Z" fill="white"/>
<path d="M349.35 284.496C346.758 284.496 344.47 284.016 342.486 283.056C340.534 282.064 338.998 280.656 337.878 278.832C336.79 276.976 336.246 274.8 336.246 272.304C336.246 269.84 336.79 267.68 337.878 265.824C338.966 263.968 340.502 262.544 342.486 261.552C344.47 260.528 346.758 260.016 349.35 260.016C351.942 260.016 354.23 260.528 356.214 261.552C358.198 262.544 359.734 263.968 360.822 265.824C361.942 267.68 362.502 269.84 362.502 272.304C362.502 274.8 361.942 276.976 360.822 278.832C359.734 280.656 358.198 282.064 356.214 283.056C354.23 284.016 351.942 284.496 349.35 284.496ZM349.35 280.656C351.846 280.656 353.83 279.888 355.302 278.352C356.774 276.816 357.51 274.8 357.51 272.304C357.51 269.712 356.774 267.664 355.302 266.16C353.83 264.656 351.846 263.904 349.35 263.904C346.854 263.904 344.87 264.656 343.398 266.16C341.926 267.664 341.19 269.712 341.19 272.304C341.19 274.8 341.926 276.816 343.398 278.352C344.87 279.888 346.854 280.656 349.35 280.656Z" fill="white"/>
<path d="M367.768 260.736H372.472V264.048C373.56 262.672 374.888 261.664 376.456 261.024C378.056 260.352 379.72 260.016 381.448 260.016C384.52 260.016 386.808 260.832 388.312 262.464C389.816 264.096 390.568 266.288 390.568 269.04V283.776H385.72V269.52C385.72 265.776 383.928 263.904 380.344 263.904C378.808 263.904 377.368 264.272 376.024 265.008C374.712 265.712 373.576 266.8 372.616 268.272V283.776H367.768V260.736Z" fill="white"/>
<path d="M405.429 284.496C403.093 284.496 401.285 283.824 400.005 282.48C398.757 281.136 398.133 279.232 398.133 276.768V264.48H394.629V260.736H398.133V253.824H403.029V260.736H408.693V264.48H403.029V276.432C403.029 277.968 403.317 279.056 403.893 279.696C404.501 280.336 405.589 280.656 407.157 280.656C408.085 280.656 409.013 280.448 409.941 280.032V283.872C408.725 284.288 407.221 284.496 405.429 284.496Z" fill="white"/>
<path d="M413.543 267.504H428.854V271.488H413.543V267.504Z" fill="white"/>
<path d="M446.815 284.496C442.559 284.496 439.215 283.44 436.783 281.328C434.383 279.184 433.183 276.176 433.183 272.304C433.183 268.528 434.255 265.536 436.399 263.328C438.575 261.12 441.663 260.016 445.663 260.016C448.319 260.016 450.575 260.528 452.431 261.552C454.287 262.544 455.679 263.936 456.607 265.728C457.567 267.488 458.047 269.504 458.047 271.776V274.176H437.791C437.951 276.352 438.863 277.984 440.527 279.072C442.223 280.128 444.511 280.656 447.391 280.656C448.863 280.656 450.351 280.528 451.855 280.272C453.359 279.984 454.687 279.616 455.839 279.168V283.056C454.815 283.472 453.455 283.808 451.759 284.064C450.095 284.352 448.447 284.496 446.815 284.496ZM453.487 270.768C453.423 268.592 452.703 266.912 451.327 265.728C449.983 264.512 448.063 263.904 445.567 263.904C443.135 263.904 441.247 264.528 439.903 265.776C438.559 267.024 437.855 268.688 437.791 270.768H453.487Z" fill="white"/>
<path d="M463.346 260.736H468.05V264.048C469.138 262.672 470.466 261.664 472.034 261.024C473.634 260.352 475.298 260.016 477.026 260.016C480.098 260.016 482.386 260.832 483.89 262.464C485.394 264.096 486.146 266.288 486.146 269.04V283.776H481.298V269.52C481.298 265.776 479.506 263.904 475.922 263.904C474.386 263.904 472.946 264.272 471.602 265.008C470.29 265.712 469.154 266.8 468.194 268.272V283.776H463.346V260.736Z" fill="white"/>
<path d="M503.263 284.496C500.959 284.496 498.879 284 497.023 283.008C495.199 281.984 493.759 280.56 492.703 278.736C491.679 276.88 491.168 274.736 491.168 272.304C491.168 269.904 491.679 267.776 492.703 265.92C493.759 264.064 495.199 262.624 497.023 261.6C498.879 260.544 500.959 260.016 503.263 260.016C507.423 260.016 510.575 261.28 512.719 263.808V248.304H517.568V283.776H512.864V280.416C511.584 281.824 510.175 282.864 508.639 283.536C507.135 284.176 505.343 284.496 503.263 284.496ZM504.367 280.656C506.351 280.656 508.08 280.144 509.552 279.12C511.056 278.064 512.111 276.656 512.719 274.896V269.712C512.175 267.952 511.135 266.544 509.599 265.488C508.095 264.432 506.351 263.904 504.367 263.904C502.799 263.904 501.375 264.256 500.095 264.96C498.847 265.664 497.856 266.656 497.12 267.936C496.416 269.216 496.064 270.672 496.064 272.304C496.064 273.936 496.416 275.392 497.12 276.672C497.856 277.952 498.847 278.944 500.095 279.648C501.375 280.32 502.799 280.656 504.367 280.656Z" fill="white"/>
<path d="M522.855 284.304H524.631C525.303 284.304 525.767 284.128 526.023 283.776C526.311 283.456 526.455 282.912 526.455 282.144V272.352C526.455 269.568 527.511 267.872 529.623 267.264V267.168C527.511 266.496 526.455 264.8 526.455 262.08V252.288C526.455 251.52 526.311 250.976 526.023 250.656C525.767 250.304 525.303 250.128 524.631 250.128H522.855V246H527.367C528.647 246 529.623 246.384 530.295 247.152C530.999 247.92 531.351 249.072 531.351 250.608V261.456C531.351 263.888 532.407 265.104 534.519 265.104H535.479V269.328H534.519C532.407 269.328 531.351 270.544 531.351 272.976V283.824C531.351 285.36 530.999 286.512 530.295 287.28C529.623 288.048 528.647 288.432 527.367 288.432H522.855V284.304Z" fill="white"/>
</svg>
